<?xml version="1.0" encoding="UTF-8" standalone="no"?>
<svg
   xmlns:dc="http://purl.org/dc/elements/1.1/"
   xmlns:cc="http://creativecommons.org/ns#"
   xmlns:rdf="http://www.w3.org/1999/02/22-rdf-syntax-ns#"
   xmlns:svg="http://www.w3.org/2000/svg"
   xmlns="http://www.w3.org/2000/svg"
   xmlns:sodipodi="http://sodipodi.sourceforge.net/DTD/sodipodi-0.dtd"
   xmlns:inkscape="http://www.inkscape.org/namespaces/inkscape"
   inkscape:version="1.0 (4035a4fb49, 2020-05-01)"
   sodipodi:docname="arrow-left.svg"
   xml:space="preserve"
   style="enable-background:new 0 0 550.354 550.354;"
   viewBox="0 0 550.354 550.354"
   height="550.354px"
   width="550.354px"
   y="0px"
   x="0px"
   id="Capa_1"
   version="1.1"><metadata
   id="metadata43"><rdf:RDF><cc:Work
       rdf:about=""><dc:format>image/svg+xml</dc:format><dc:type
         rdf:resource="http://purl.org/dc/dcmitype/StillImage" /><dc:title></dc:title></cc:Work></rdf:RDF></metadata><defs
   id="defs41" /><sodipodi:namedview
   inkscape:current-layer="Capa_1"
   inkscape:window-maximized="1"
   inkscape:window-y="-8"
   inkscape:window-x="-8"
   inkscape:cy="352.11299"
   inkscape:cx="245.63594"
   inkscape:zoom="1.2355684"
   showgrid="false"
   id="namedview39"
   inkscape:window-height="847"
   inkscape:window-width="1440"
   inkscape:pageshadow="2"
   inkscape:pageopacity="0"
   guidetolerance="10"
   gridtolerance="10"
   objecttolerance="10"
   borderopacity="1"
   bordercolor="#666666"
   pagecolor="#ffffff" />
<g
   style="fill:#e2001a;fill-opacity:1"
   id="g6">
	<g
   style="fill:#e2001a;fill-opacity:1"
   id="g4">
		<path
   style="fill:#e2001a;fill-opacity:1"
   id="path2"
   d="M541.169,208.807H261.295c-5.07,0-5.906-2.484-1.87-5.551l68.373-51.919c4.039-3.066,7.311-9.66,7.311-14.73V25.578    c0-5.07-3.269-6.689-7.301-3.614L3.025,269.61c-4.033,3.075-4.033,8.057,0,11.132L327.811,528.39    c4.033,3.076,7.301,1.457,7.301-3.613V413.748c0-5.07-3.274-11.665-7.311-14.73l-68.372-51.919    c-4.04-3.066-3.201-5.551,1.87-5.551h279.876c5.07,0,9.18-4.11,9.18-9.181V217.988    C550.349,212.917,546.239,208.807,541.169,208.807z" />
	</g>
</g>
<g
   id="g8">
</g>
<g
   id="g10">
</g>
<g
   id="g12">
</g>
<g
   id="g14">
</g>
<g
   id="g16">
</g>
<g
   id="g18">
</g>
<g
   id="g20">
</g>
<g
   id="g22">
</g>
<g
   id="g24">
</g>
<g
   id="g26">
</g>
<g
   id="g28">
</g>
<g
   id="g30">
</g>
<g
   id="g32">
</g>
<g
   id="g34">
</g>
<g
   id="g36">
</g>
</svg>
