<?xml version="1.0" encoding="UTF-8" standalone="no"?>
<svg
   xmlns:dc="http://purl.org/dc/elements/1.1/"
   xmlns:cc="http://creativecommons.org/ns#"
   xmlns:rdf="http://www.w3.org/1999/02/22-rdf-syntax-ns#"
   xmlns:svg="http://www.w3.org/2000/svg"
   xmlns="http://www.w3.org/2000/svg"
   xmlns:sodipodi="http://sodipodi.sourceforge.net/DTD/sodipodi-0.dtd"
   xmlns:inkscape="http://www.inkscape.org/namespaces/inkscape"
   id="Layer_1"
   enable-background="new 0 0 496.006 496.006"
   height="512"
   viewBox="0 0 496.006 496.006"
   width="512"
   version="1.1"
   sodipodi:docname="icon-leaf.svg"
   inkscape:version="1.0 (4035a4fb49, 2020-05-01)">
  <metadata
     id="metadata9">
    <rdf:RDF>
      <cc:Work
         rdf:about="">
        <dc:format>image/svg+xml</dc:format>
        <dc:type
           rdf:resource="http://purl.org/dc/dcmitype/StillImage" />
        <dc:title />
      </cc:Work>
    </rdf:RDF>
  </metadata>
  <defs
     id="defs7" />
  <sodipodi:namedview
     inkscape:document-rotation="0"
     pagecolor="#ffffff"
     bordercolor="#666666"
     borderopacity="1"
     objecttolerance="10"
     gridtolerance="10"
     guidetolerance="10"
     inkscape:pageopacity="0"
     inkscape:pageshadow="2"
     inkscape:window-width="1440"
     inkscape:window-height="847"
     id="namedview5"
     showgrid="false"
     inkscape:zoom="1.328125"
     inkscape:cx="228.51765"
     inkscape:cy="229.09552"
     inkscape:window-x="-8"
     inkscape:window-y="-8"
     inkscape:window-maximized="1"
     inkscape:current-layer="Layer_1" />
  <path
     style="fill:#20323c;fill-opacity:1"
     d="m418.769.38c.19-.05.37-.08.56-.11-.149.014-.41.076-.56.11zm-31.309 336.019c-59.366 57.92-150.925 95.155-235.586 70.201-12.457-3.672-18.049-18.103-11.509-29.324 27.051-46.418 61.958-87.815 103.376-122.506 6.78-5.67 7.67-15.76 1.99-22.54-5.67-6.77-15.76-7.66-22.54-1.99-76.968 64.484-134.675 151.883-161.041 253.77-2.235 8.622-11.051 13.687-19.5 11.48-8.56-2.21-13.7-10.94-11.48-19.5 10.38-40.11 25.13-78.1 44.09-113.61-150.943-158.268 98.712-316.163 344.559-362.2.123-.062 2.078-.263 3.39-.14 1.992-.399 10.715 2.191 13.61 9.42 51.484 109.246 36.906 242.75-49.359 326.939zm10.349-192.089c-8.63-1.88-17.16 3.6-19.04 12.23-5.53 25.35-14.79 49.17-27.55 70.8-4.48 7.62-1.95 17.43 5.66 21.91 7.544 4.468 17.408 2 21.91-5.66 14.48-24.56 24.99-51.56 31.24-80.23 1.89-8.64-3.59-17.161-12.22-19.05zm-337.64 344.26c3.376-5.256 6.566-28.921 24.77-72.18-9.92 23.18-18.2 47.259-24.77 72.18z"
     id="path2" />
</svg>
