<?xml version="1.0" encoding="UTF-8" standalone="no"?>
<svg
   xmlns:dc="http://purl.org/dc/elements/1.1/"
   xmlns:cc="http://creativecommons.org/ns#"
   xmlns:rdf="http://www.w3.org/1999/02/22-rdf-syntax-ns#"
   xmlns:svg="http://www.w3.org/2000/svg"
   xmlns="http://www.w3.org/2000/svg"
   xmlns:sodipodi="http://sodipodi.sourceforge.net/DTD/sodipodi-0.dtd"
   xmlns:inkscape="http://www.inkscape.org/namespaces/inkscape"
   version="1.1"
   id="Capa_1"
   x="0px"
   y="0px"
   viewBox="0 0 512 512"
   style="enable-background:new 0 0 512 512;"
   xml:space="preserve"
   width="512"
   height="512"
   sodipodi:docname="icon-flower.svg"
   inkscape:version="1.0 (4035a4fb49, 2020-05-01)"><metadata
   id="metadata15"><rdf:RDF><cc:Work
       rdf:about=""><dc:format>image/svg+xml</dc:format><dc:type
         rdf:resource="http://purl.org/dc/dcmitype/StillImage" /><dc:title /></cc:Work></rdf:RDF></metadata><defs
   id="defs13" /><sodipodi:namedview
   inkscape:document-rotation="0"
   pagecolor="#ffffff"
   bordercolor="#666666"
   borderopacity="1"
   objecttolerance="10"
   gridtolerance="10"
   guidetolerance="10"
   inkscape:pageopacity="0"
   inkscape:pageshadow="2"
   inkscape:window-width="1440"
   inkscape:window-height="847"
   id="namedview11"
   showgrid="false"
   inkscape:zoom="1.328125"
   inkscape:cx="228.51765"
   inkscape:cy="467.88688"
   inkscape:window-x="-8"
   inkscape:window-y="-8"
   inkscape:window-maximized="1"
   inkscape:current-layer="Capa_1" />
<g
   style="fill:#20323c;fill-opacity:1"
   id="g8">
	<path
   style="fill:#20323c;fill-opacity:1"
   d="M506.149,188.278c-18.384-56.569-75.248-90.093-132.237-81.018C364.937,50.26,315.48,6.533,256,6.533   c-59.475,0-108.932,43.725-117.917,100.714C81.533,98.163,24.403,131.196,5.85,188.28c-18.375,56.568,7.928,117.116,59.359,143.266   c-26.236,51.387-11.926,115.834,36.189,150.801c49.772,36.155,115.346,27.122,154.592-12.177   c27.229,27.352,92.716,57.144,154.606,12.176c48.119-34.963,62.433-99.411,36.196-150.8   C498.222,305.396,524.525,244.847,506.149,188.278z M366.766,305.531c6.34,15.952,12.268,56.68-24.198,83.175   c-26.608,19.33-62.297,17.348-86.553-2.69c-5.625,4.665-45.043,32.868-86.581,2.691c-36.502-26.523-30.544-67.212-24.199-83.176   c-26.552-16.878-39.463-50.208-29.308-81.483c10.165-31.279,40.225-50.649,71.625-48.701c7.839-30.478,35.555-53.065,68.449-53.065   c32.886,0,60.598,22.579,68.444,53.046c17.021-1.086,57.674,5.767,71.622,48.72C406.229,255.319,393.32,288.651,366.766,305.531z"
   id="path2" />
	<path
   style="fill:#20323c;fill-opacity:1"
   d="M316.298,207.206c-4.567,1.484-9.567,0.69-13.452-2.132c-3.884-2.822-6.182-7.333-6.182-12.135   c0-22.418-18.242-40.656-40.665-40.656s-40.665,18.238-40.665,40.656c0,4.801-2.298,9.312-6.182,12.135   c-3.884,2.822-8.883,3.616-13.452,2.132c-22.887-7.43-44.828,6.378-51.242,26.111c-6.924,21.322,4.789,44.309,26.111,51.238   c4.568,1.484,8.148,5.065,9.631,9.632s0.691,9.569-2.133,13.453c-13.074,17.988-9.332,43.477,8.999,56.795   c18.149,13.187,43.581,9.19,56.796-8.997c2.822-3.884,7.333-6.183,12.135-6.183s9.313,2.299,12.135,6.183   c13.18,18.14,38.659,22.175,56.798,8.997c17.999-13.078,22.31-38.478,8.998-56.795c-2.823-3.884-3.616-8.886-2.133-13.453   c1.483-4.567,5.063-8.148,9.631-9.632c21.323-6.93,33.033-29.916,26.104-51.239C360.605,211.98,337.68,200.264,316.298,207.206z    M256,328.387c-32.441,0-58.832-26.392-58.832-58.832c0-32.44,26.392-58.832,58.832-58.832c32.44,0,58.831,26.392,58.831,58.832   C314.832,301.995,288.44,328.387,256,328.387z"
   id="path4" />
	<path
   style="fill:#20323c;fill-opacity:1"
   d="M256,240.723c-15.898,0-28.832,12.934-28.832,28.832c0,15.898,12.934,28.832,28.832,28.832   c15.898,0,28.832-12.934,28.832-28.832C284.832,253.657,271.898,240.723,256,240.723z"
   id="path6" />
</g>















</svg>
