<?xml version="1.0" encoding="UTF-8" standalone="no"?>
<svg
   xmlns:dc="http://purl.org/dc/elements/1.1/"
   xmlns:cc="http://creativecommons.org/ns#"
   xmlns:rdf="http://www.w3.org/1999/02/22-rdf-syntax-ns#"
   xmlns:svg="http://www.w3.org/2000/svg"
   xmlns="http://www.w3.org/2000/svg"
   xmlns:sodipodi="http://sodipodi.sourceforge.net/DTD/sodipodi-0.dtd"
   xmlns:inkscape="http://www.inkscape.org/namespaces/inkscape"
   version="1.1"
   id="Capa_1"
   x="0px"
   y="0px"
   viewBox="0 0 512 512"
   style="enable-background:new 0 0 512 512;"
   xml:space="preserve"
   sodipodi:docname="icon-shine.svg"
   inkscape:version="1.0 (4035a4fb49, 2020-05-01)"><metadata
   id="metadata55"><rdf:RDF><cc:Work
       rdf:about=""><dc:format>image/svg+xml</dc:format><dc:type
         rdf:resource="http://purl.org/dc/dcmitype/StillImage" /><dc:title /></cc:Work></rdf:RDF></metadata><defs
   id="defs53" /><sodipodi:namedview
   inkscape:document-rotation="0"
   pagecolor="#ffffff"
   bordercolor="#666666"
   borderopacity="1"
   objecttolerance="10"
   gridtolerance="10"
   guidetolerance="10"
   inkscape:pageopacity="0"
   inkscape:pageshadow="2"
   inkscape:window-width="1440"
   inkscape:window-height="847"
   id="namedview51"
   showgrid="false"
   inkscape:zoom="1.328125"
   inkscape:cx="228.51765"
   inkscape:cy="428.34237"
   inkscape:window-x="-8"
   inkscape:window-y="-8"
   inkscape:window-maximized="1"
   inkscape:current-layer="Capa_1" />
<g
   style="fill:#20323c;fill-opacity:1"
   id="g6">
	<g
   style="fill:#20323c;fill-opacity:1"
   id="g4">
		<path
   style="fill:#20323c;fill-opacity:1"
   d="M298.138,136.665c-62.065-13.011-110.576-61.522-123.585-123.588C172.955,5.458,166.235,0,158.448,0    s-14.507,5.458-16.104,13.078c-13.01,62.065-61.521,110.575-123.586,123.584c-7.62,1.597-13.079,8.318-13.079,16.104    s5.458,14.507,13.079,16.104c62.064,13.011,110.573,61.521,123.583,123.586c1.597,7.62,8.317,13.079,16.104,13.079    c7.786,0,14.507-5.458,16.104-13.079c13.011-62.065,61.523-110.575,123.588-123.583c7.62-1.597,13.079-8.317,13.079-16.104    C311.215,144.983,305.757,138.262,298.138,136.665z"
   id="path2" />
	</g>
</g>
<g
   style="fill:#20323c;fill-opacity:1"
   id="g12">
	<g
   style="fill:#20323c;fill-opacity:1"
   id="g10">
		<path
   style="fill:#20323c;fill-opacity:1"
   d="M270.938,408.484c-29.242-6.129-52.098-28.985-58.229-58.229c-1.597-7.62-8.317-13.079-16.104-13.079    c-7.786,0-14.507,5.457-16.104,13.078c-6.131,29.243-28.988,52.099-58.23,58.229c-7.62,1.597-13.079,8.318-13.079,16.104    c0,7.786,5.458,14.507,13.079,16.104c29.241,6.13,52.098,28.987,58.228,58.23c1.597,7.62,8.317,13.079,16.104,13.079    c7.786,0,14.507-5.457,16.104-13.079c6.131-29.243,28.988-52.099,58.231-58.229c7.62-1.597,13.079-8.318,13.079-16.104    C284.017,416.802,278.559,410.082,270.938,408.484z"
   id="path8" />
	</g>
</g>
<g
   style="fill:#20323c;fill-opacity:1"
   id="g18">
	<g
   style="fill:#20323c;fill-opacity:1"
   id="g16">
		<path
   style="fill:#20323c;fill-opacity:1"
   d="M493.243,256.135c-39.526-8.286-70.419-39.18-78.704-78.705c-1.597-7.62-8.317-13.079-16.104-13.079    c-7.786,0-14.507,5.457-16.104,13.078c-8.286,39.526-39.179,70.419-78.705,78.704c-7.62,1.597-13.079,8.318-13.079,16.104    c0,7.786,5.458,14.506,13.079,16.104c39.525,8.286,70.418,39.179,78.703,78.705c1.597,7.62,8.317,13.079,16.104,13.079    c7.786,0,14.507-5.457,16.104-13.079c8.287-39.526,39.18-70.419,78.705-78.703c7.62-1.598,13.079-8.318,13.079-16.104    S500.863,257.732,493.243,256.135z"
   id="path14" />
	</g>
</g>
<g
   id="g20">
</g>
<g
   id="g22">
</g>
<g
   id="g24">
</g>
<g
   id="g26">
</g>
<g
   id="g28">
</g>
<g
   id="g30">
</g>
<g
   id="g32">
</g>
<g
   id="g34">
</g>
<g
   id="g36">
</g>
<g
   id="g38">
</g>
<g
   id="g40">
</g>
<g
   id="g42">
</g>
<g
   id="g44">
</g>
<g
   id="g46">
</g>
<g
   id="g48">
</g>
</svg>
