<?xml version="1.0" encoding="UTF-8" standalone="no"?>
<svg
   xmlns:dc="http://purl.org/dc/elements/1.1/"
   xmlns:cc="http://creativecommons.org/ns#"
   xmlns:rdf="http://www.w3.org/1999/02/22-rdf-syntax-ns#"
   xmlns:svg="http://www.w3.org/2000/svg"
   xmlns="http://www.w3.org/2000/svg"
   xmlns:sodipodi="http://sodipodi.sourceforge.net/DTD/sodipodi-0.dtd"
   xmlns:inkscape="http://www.inkscape.org/namespaces/inkscape"
   inkscape:version="1.0 (4035a4fb49, 2020-05-01)"
   sodipodi:docname="icon-coins.svg"
   id="svg14"
   version="1.1"
   width="512pt"
   viewBox="0 0 512 512"
   height="512pt">
  <metadata
     id="metadata20">
    <rdf:RDF>
      <cc:Work
         rdf:about="">
        <dc:format>image/svg+xml</dc:format>
        <dc:type
           rdf:resource="http://purl.org/dc/dcmitype/StillImage" />
        <dc:title></dc:title>
      </cc:Work>
    </rdf:RDF>
  </metadata>
  <defs
     id="defs18" />
  <sodipodi:namedview
     inkscape:current-layer="svg14"
     inkscape:window-maximized="1"
     inkscape:window-y="-8"
     inkscape:window-x="-8"
     inkscape:cy="174.18881"
     inkscape:cx="304.6902"
     inkscape:zoom="0.99609375"
     showgrid="false"
     id="namedview16"
     inkscape:window-height="847"
     inkscape:window-width="1440"
     inkscape:pageshadow="2"
     inkscape:pageopacity="0"
     guidetolerance="10"
     gridtolerance="10"
     objecttolerance="10"
     borderopacity="1"
     bordercolor="#666666"
     pagecolor="#ffffff" />
  <path
     style="fill:#ebebeb;fill-opacity:1"
     id="path2"
     d="m219.800781 106.261719c31.507813 8.859375 73.128907 13.738281 117.199219 13.738281s85.691406-4.878906 117.199219-13.738281c38.355469-10.789063 57.800781-26.351563 57.800781-46.261719s-19.445312-35.472656-57.800781-46.261719c-31.507813-8.859375-73.128907-13.738281-117.199219-13.738281s-85.691406 4.878906-117.199219 13.738281c-38.355469 10.789063-57.800781 26.351563-57.800781 46.261719s19.445312 35.472656 57.800781 46.261719zm0 0" />
  <path
     style="fill:#ebebeb;fill-opacity:1"
     id="path4"
     d="m362.660156 419.464844c-9.933594 22.519531-23.804687 42.921875-40.734375 60.339844 4.984375.128906 10.011719.195312 15.074219.195312 44.070312 0 85.691406-4.878906 117.199219-13.738281 38.355469-10.789063 57.800781-26.351563 57.800781-46.261719v-36.851562c-12.496094 8.898437-28.808594 16.121093-49.679688 21.992187-27.769531 7.808594-62.46875 12.757813-99.660156 14.324219zm0 0" />
  <path
     style="fill:#ebebeb;fill-opacity:1"
     id="path6"
     d="m337 150c-37.84375 0-74.21875-3.460938-104.78125-9.863281 41.417969 12.058593 77.464844 36.855469 103.585938 69.859375.398437 0 .796874.003906 1.195312.003906 44.074219 0 85.695312-4.878906 117.199219-13.738281 38.355469-10.789063 57.800781-26.351563 57.800781-46.261719v-36.851562c-12.496094 8.898437-28.808594 16.121093-49.679688 21.992187-34.074218 9.582031-78.582031 14.859375-125.320312 14.859375zm0 0" />
  <path
     style="fill:#ebebeb;fill-opacity:1"
     id="path8"
     d="m355.410156 239.722656c9.839844 18.175782 17 38 20.980469 58.941406 29.105469-2.011718 55.902344-6.242187 77.808594-12.402343 38.355469-10.789063 57.800781-26.351563 57.800781-46.261719v-36.851562c-12.496094 8.898437-28.808594 16.121093-49.679688 21.992187-29.566406 8.3125-66.992187 13.386719-106.910156 14.582031zm0 0" />
  <path
     style="fill:#ebebeb;fill-opacity:1"
     id="path10"
     d="m379.808594 328.492188c.117187 2.824218.191406 5.65625.191406 8.507812 0 17.914062-2.316406 35.296875-6.652344 51.867188 30.28125-1.917969 58.183594-6.234376 80.851563-12.605469 38.355469-10.789063 57.800781-26.351563 57.800781-46.261719v-36.851562c-12.496094 8.898437-28.808594 16.121093-49.679688 21.992187-23.453124 6.59375-51.847656 11.148437-82.511718 13.351563zm0 0" />
  <path
     style="fill:#ebebeb;fill-opacity:1"
     id="path12"
     d="m175 162c-96.496094 0-175 78.503906-175 175s78.503906 175 175 175 175-78.503906 175-175-78.503906-175-175-175zm48 255h-96v-30h33v-71.363281c-9.605469 5.929687-20.90625 9.363281-33 9.363281v-30c18.195312 0 33-14.804688 33-33h30v125h33zm0 0" />
</svg>
