<?xml version="1.0" encoding="UTF-8" standalone="no"?>
<svg
   xmlns:dc="http://purl.org/dc/elements/1.1/"
   xmlns:cc="http://creativecommons.org/ns#"
   xmlns:rdf="http://www.w3.org/1999/02/22-rdf-syntax-ns#"
   xmlns:svg="http://www.w3.org/2000/svg"
   xmlns="http://www.w3.org/2000/svg"
   xmlns:sodipodi="http://sodipodi.sourceforge.net/DTD/sodipodi-0.dtd"
   xmlns:inkscape="http://www.inkscape.org/namespaces/inkscape"
   id="Capa_1"
   enable-background="new 0 0 524.235 524.235"
   height="512"
   viewBox="0 0 524.235 524.235"
   width="512"
   version="1.1"
   sodipodi:docname="icon-carwash.svg"
   inkscape:version="1.0 (4035a4fb49, 2020-05-01)">
  <metadata
     id="metadata11">
    <rdf:RDF>
      <cc:Work
         rdf:about="">
        <dc:format>image/svg+xml</dc:format>
        <dc:type
           rdf:resource="http://purl.org/dc/dcmitype/StillImage" />
        <dc:title />
      </cc:Work>
    </rdf:RDF>
  </metadata>
  <defs
     id="defs9" />
  <sodipodi:namedview
     inkscape:document-rotation="0"
     pagecolor="#ffffff"
     bordercolor="#666666"
     borderopacity="1"
     objecttolerance="10"
     gridtolerance="10"
     guidetolerance="10"
     inkscape:pageopacity="0"
     inkscape:pageshadow="2"
     inkscape:window-width="1440"
     inkscape:window-height="847"
     id="namedview7"
     showgrid="false"
     inkscape:zoom="1.328125"
     inkscape:cx="238.97905"
     inkscape:cy="475.46156"
     inkscape:window-x="-8"
     inkscape:window-y="-8"
     inkscape:window-maximized="1"
     inkscape:current-layer="Capa_1" />
  <path
     style="fill:#20323c;fill-opacity:1"
     d="m484.721 234.798-36.766-122.554c-8.383-27.949-33.613-46.715-62.778-46.715h-24.766v65.529h24.766l29.489 98.294h-305.097l29.489-98.294h24.765v-65.529h-24.765c-29.165 0-54.395 18.766-62.778 46.715l-36.766 122.554c-23.216 10.089-39.514 33.193-39.514 60.084v131.059c0 18.094 14.671 32.765 32.765 32.765h.002l-.002 32.763c0 18.096 14.669 32.767 32.765 32.767h32.767c18.094 0 32.765-14.671 32.765-32.765l-.014-32.765h262.13l-.002 32.763c0 18.096 14.669 32.767 32.765 32.767h32.767c18.096 0 32.765-14.671 32.765-32.765v-32.763l-.012-.002h.012c18.094 0 32.765-14.671 32.765-32.765v-131.059c-.003-26.891-16.301-49.995-39.517-60.084zm-353.662 141.996c-18.096 0-32.765-14.671-32.765-32.765 0-18.096 14.669-32.765 32.765-32.765s32.765 14.669 32.765 32.765c0 18.095-14.669 32.765-32.765 32.765zm262.118 0c-18.096 0-32.765-14.671-32.765-32.765 0-18.096 14.669-32.765 32.765-32.765s32.765 14.669 32.765 32.765c0 18.095-14.669 32.765-32.765 32.765z"
     id="path2" />
  <path
     style="fill:#20323c;fill-opacity:1"
     id="path-1_35_"
     d="m294.883 98.294c18.096 0 32.765-14.671 32.765-32.765-.001-18.096-32.765-65.529-32.765-65.529s-32.765 47.433-32.765 65.529c0 18.095 14.669 32.765 32.765 32.765z"
     transform="translate(8)" />
  <path
     style="fill:#20323c;fill-opacity:1"
     id="path-1_34_"
     d="m229.353 163.824c18.096 0 32.765-14.671 32.765-32.765 0-18.096-32.765-65.529-32.765-65.529s-32.765 47.433-32.765 65.529c.001 18.094 14.669 32.765 32.765 32.765z"
     transform="translate(6 2)" />
</svg>
