<?xml version="1.0" encoding="UTF-8" standalone="no"?>
<svg
   xmlns:dc="http://purl.org/dc/elements/1.1/"
   xmlns:cc="http://creativecommons.org/ns#"
   xmlns:rdf="http://www.w3.org/1999/02/22-rdf-syntax-ns#"
   xmlns:svg="http://www.w3.org/2000/svg"
   xmlns="http://www.w3.org/2000/svg"
   xmlns:sodipodi="http://sodipodi.sourceforge.net/DTD/sodipodi-0.dtd"
   xmlns:inkscape="http://www.inkscape.org/namespaces/inkscape"
   id="Capa_1"
   enable-background="new 0 0 512 512"
   height="512"
   viewBox="0 0 512 512"
   width="512"
   version="1.1"
   sodipodi:docname="icon-thermometer.svg"
   inkscape:version="1.0 (4035a4fb49, 2020-05-01)">
  <metadata
     id="metadata15">
    <rdf:RDF>
      <cc:Work
         rdf:about="">
        <dc:format>image/svg+xml</dc:format>
        <dc:type
           rdf:resource="http://purl.org/dc/dcmitype/StillImage" />
        <dc:title />
      </cc:Work>
    </rdf:RDF>
  </metadata>
  <defs
     id="defs13" />
  <sodipodi:namedview
     inkscape:document-rotation="0"
     pagecolor="#ffffff"
     bordercolor="#666666"
     borderopacity="1"
     objecttolerance="10"
     gridtolerance="10"
     guidetolerance="10"
     inkscape:pageopacity="0"
     inkscape:pageshadow="2"
     inkscape:window-width="1440"
     inkscape:window-height="847"
     id="namedview11"
     showgrid="false"
     inkscape:zoom="1.328125"
     inkscape:cx="498.88663"
     inkscape:cy="314.46677"
     inkscape:window-x="-8"
     inkscape:window-y="-8"
     inkscape:window-maximized="1"
     inkscape:current-layer="Capa_1" />
  <g
     style="fill:#20323c;fill-opacity:1"
     id="g8">
    <circle
       style="fill:#20323c;fill-opacity:1"
       cx="376.5"
       cy="406.625"
       r="15.125"
       id="circle2" />
    <path
       style="fill:#20323c;fill-opacity:1"
       d="m451.75 332.87v-257.62c0-41.493-33.757-75.25-75.25-75.25s-75.25 33.757-75.25 75.25v257.62c-19.078 19.483-29.976 45.78-30.124 73.178-.309 57.618 46.292 105.144 103.882 105.942.503.007 1.005.01 1.507.01 27.878 0 54.097-10.743 73.975-30.347 20.239-19.96 31.385-46.605 31.385-75.028 0-27.619-10.901-54.127-30.125-73.755zm-75.25 118.88c-24.882 0-45.125-20.243-45.125-45.125 0-19.624 12.596-36.354 30.125-42.552v-47.823c0-8.284 6.716-15 15-15s15 6.716 15 15v47.823c17.529 6.198 30.125 22.927 30.125 42.552 0 24.882-20.243 45.125-45.125 45.125z"
       id="path4" />
    <path
       style="fill:#20323c;fill-opacity:1"
       d="m238.865 136.072c-3.947-6.835-12.458-9.378-19.458-6.019-1.17-5.29-5.164-9.764-10.759-11.263-8.004-2.142-16.227 2.604-18.371 10.607l-5.518 20.593-34.259 19.78v-39.56l15.075-15.075c5.858-5.857 5.858-15.355 0-21.213-4.095-4.095-9.968-5.317-15.134-3.686-.593-7.742-7.048-13.843-14.942-13.843s-14.349 6.101-14.942 13.843c-5.166-1.631-11.038-.41-15.134 3.686-5.858 5.857-5.858 15.355 0 21.213l15.077 15.075v39.56l-34.259-19.78-5.518-20.594c-2.143-8.002-10.366-12.75-18.371-10.607-5.595 1.5-9.589 5.975-10.759 11.265-7.001-3.358-15.512-.817-19.458 6.019-3.947 6.836-1.891 15.477 4.517 19.861-3.996 3.658-5.874 9.354-4.375 14.949 1.795 6.702 7.856 11.122 14.479 11.122 1.285 0 2.591-.167 3.892-.515l20.594-5.518 34.258 19.778-34.258 19.779-20.594-5.518c-8.005-2.141-16.228 2.604-18.371 10.607-1.499 5.595.379 11.291 4.375 14.949-6.408 4.384-8.463 13.025-4.517 19.861 2.778 4.812 7.82 7.503 13.004 7.503 2.18 0 4.384-.48 6.456-1.474 1.173 5.285 5.166 9.755 10.757 11.253 1.301.348 2.606.515 3.892.515 6.623-.001 12.684-4.42 14.479-11.122l5.518-20.593 34.259-19.78v39.56l-15.075 15.075c-5.858 5.857-5.858 15.355 0 21.213 4.095 4.095 9.968 5.317 15.134 3.686.593 7.742 7.048 13.843 14.942 13.843 7.893 0 14.349-6.101 14.942-13.842 1.472.465 2.998.708 4.527.708 3.839 0 7.678-1.465 10.606-4.394 5.858-5.857 5.858-15.355 0-21.213l-15.076-15.076v-39.56l34.259 19.779 5.518 20.594c1.795 6.702 7.856 11.122 14.479 11.122 1.285 0 2.591-.167 3.892-.515 5.591-1.499 9.584-5.969 10.757-11.254 2.072.994 4.276 1.474 6.456 1.474 5.184 0 10.227-2.691 13.004-7.503 3.947-6.836 1.891-15.477-4.517-19.861 3.996-3.658 5.874-9.354 4.375-14.949-2.144-8.002-10.367-12.746-18.371-10.607l-20.594 5.518-34.258-19.778 34.258-19.779 20.594 5.518c1.301.348 2.606.515 3.892.515 6.623 0 12.684-4.42 14.479-11.122 1.499-5.595-.379-11.291-4.375-14.949 6.408-4.384 8.464-13.025 4.517-19.861z"
       id="path6" />
  </g>
</svg>
