<?xml version="1.0" encoding="UTF-8" standalone="no"?>
<svg
   xmlns:dc="http://purl.org/dc/elements/1.1/"
   xmlns:cc="http://creativecommons.org/ns#"
   xmlns:rdf="http://www.w3.org/1999/02/22-rdf-syntax-ns#"
   xmlns:svg="http://www.w3.org/2000/svg"
   xmlns="http://www.w3.org/2000/svg"
   xmlns:sodipodi="http://sodipodi.sourceforge.net/DTD/sodipodi-0.dtd"
   xmlns:inkscape="http://www.inkscape.org/namespaces/inkscape"
   inkscape:version="1.0 (4035a4fb49, 2020-05-01)"
   sodipodi:docname="icon-chip.svg"
   version="1.1"
   width="512"
   viewBox="0 0 512 512"
   height="512"
   enable-background="new 0 0 512 512"
   id="Capa_1">
  <metadata
     id="metadata27">
    <rdf:RDF>
      <cc:Work
         rdf:about="">
        <dc:format>image/svg+xml</dc:format>
        <dc:type
           rdf:resource="http://purl.org/dc/dcmitype/StillImage" />
        <dc:title></dc:title>
      </cc:Work>
    </rdf:RDF>
  </metadata>
  <defs
     id="defs25" />
  <sodipodi:namedview
     inkscape:current-layer="Capa_1"
     inkscape:window-maximized="1"
     inkscape:window-y="-8"
     inkscape:window-x="-8"
     inkscape:cy="279.71359"
     inkscape:cx="274.33054"
     inkscape:zoom="1.328125"
     showgrid="false"
     id="namedview23"
     inkscape:window-height="847"
     inkscape:window-width="1440"
     inkscape:pageshadow="2"
     inkscape:pageopacity="0"
     guidetolerance="10"
     gridtolerance="10"
     objecttolerance="10"
     borderopacity="1"
     bordercolor="#666666"
     pagecolor="#ffffff" />
  <path
     style="fill:#ffffff"
     id="path2"
     d="m332 191h90v50h-90z" />
  <path
     style="fill:#ffffff"
     id="path4"
     d="m90 271h90v50h-90z" />
  <path
     style="fill:#ffffff"
     id="path6"
     d="m90 191h90v50h-90z" />
  <path
     style="fill:#ffffff"
     id="path8"
     d="m210 211h92v90h-92z" />
  <path
     style="fill:#ffffff"
     id="path10"
     d="m332 271h90v50h-90z" />
  <path
     style="fill:#ffffff"
     id="path12"
     d="m195 161c8.284 0 15 6.716 15 15v5h31v-35c0-3.979 1.58-7.794 4.394-10.606l4.394-4.394h-159.788v30z" />
  <path
     style="fill:#ffffff"
     id="path14"
     d="m271 152.213v28.787h31v-5c0-8.284 6.716-15 15-15h105v-30h-129.787z" />
  <path
     style="fill:#ffffff"
     id="path16"
     d="m317 351c-8.284 0-15-6.716-15-15v-5h-31v35c0 3.979-1.58 7.794-4.394 10.606l-4.393 4.394h159.787v-30z" />
  <path
     style="fill:#ffffff"
     id="path18"
     d="m241 359.787v-28.787h-31v5c0 8.284-6.716 15-15 15h-105v30h129.787z" />
  <path
     style="fill:#ffffff"
     id="path20"
     d="m437 41h-362c-41.355 0-75 33.645-75 75v280c0 41.355 33.645 75 75 75h362c41.355 0 75-33.645 75-75v-280c0-41.355-33.645-75-75-75zm15 355c0 8.284-6.716 15-15 15h-362c-8.284 0-15-6.716-15-15v-280c0-8.284 6.716-15 15-15h362c8.284 0 15 6.716 15 15z" />
</svg>
